.
 
http://www.scenetime.com    -   SceneTime [ We been having it ] !!!


How come you press harder on a remote control when you know the battery is dead? so you better seed to get speed ;)

        Seed back for speed


...................................NFO:.................................................                                                                
 @@@@@@@   @@@  @@@  @@@  @@@@@@@@  @@@@@@@   @@@@@@    @@@  @@@@@@@  @@@ @@@ 
 @@@@@@@@  @@@  @@@  @@@  @@@@@@@@  @@@@@@@@  @@@@@@@   @@@  @@@@@@@  @@@ @@@ 
 @@!  @@@  @@!  @@!  @@@  @@!       @@!  @@@  !@@       @@!    @@!    @@! !@@ 
 !@!  @!@  !@!  !@!  @!@  !@!       !@!  @!@  !@!       !@!    !@!    !@! @!! 
 @!@  !@!  !!@  @!@  !@!  @!!!:!    @!@!!@!   !!@@!!    !!@    @!!     !@!@!  
 !@!  !!!  !!!  !@!  !!!  !!!!!:    !!@!@!     !!@!!!   !!!    !!!      @!!!  
 !!:  !!!  !!:  :!:  !!:  !!:       !!: :!!        !:!  !!:    !!:      !!:   
 :!:  !:!  :!:   ::!!:!   :!:       :!:  !:!      !:!   :!:    :!:      :!:   
 :::: ::   ::    ::::     :: ::::   ::   :::  :::: ::    ::     ::       ::   
 :: :  :   :       :      : :: ::    :   : :  :: : :    :       :        :       



General
Complete name                    : The Wild Hunt 2009 DiVERSiTY.avi
Format                           : AVI
Format/Info                      : Audio Video Interleave
File size                        : 695 MiB
Duration                         : 1h 35mn
Overall bit rate                 : 1 013 Kbps
Encoder                          : usagi
IMDb                             : http://www.imdb.com/title/tt1493886/



Video
ID                               : 0
Format                           : MPEG-4 Visual
Format profile                   : Advanced Simple@L5
Format settings, BVOP            : 2
Format settings, QPel            : No
Format settings, GMC             : No warppoints
Format settings, Matrix          : Default (H.263)
Codec ID                         : XVID
Codec ID/Hint                    : XviD
Duration                         : 1h 35mn
Bit rate                         : 879 Kbps
Width                            : 720 pixels
Height                           : 400 pixels
Display aspect ratio             : 16:9
Frame rate                       : 23.976 fps
Color space                      : YUV
Chroma subsampling               : 4:2:0
Bit depth                        : 8 bits
Scan type                        : Progressive
Compression mode                 : Lossy
Bits/(Pixel*Frame)               : 0.127
Stream size                      : 603 MiB (87%)
Writing library                  : XviD 1.2.1 (UTC 2008-12-04)

Audio
ID                               : 1
Format                           : MPEG Audio
Format version                   : Version 1
Format profile                   : Layer 3
Mode                             : Joint stereo
Mode extension                   : MS Stereo
Codec ID                         : 55
Codec ID/Hint                    : MP3
Duration                         : 1h 35mn
Bit rate mode                    : Constant
Bit rate                         : 128 Kbps
Channel(s)                       : 2 channels
Sampling rate                    : 48.0 KHz
Compression mode                 : Lossy
Stream size                      : 87.8 MiB (13%)
Alignment                        : Aligned on interleaves
Interleave, duration             : 167 ms (4.00 video frames)
Interleave, preload duration     : 216 ms
Title                            : VTS_01_1 T80 2_0ch 192Kbps DELAY 0ms_new
Writing library                  : LAME3.98r
Encoding settings                : -m j -V 4 -q 2 -lowpass 17 -b 128


Plot
A medieval reenactment game turns into a Shakespearean tragedy 
when a non-player crashes the event to win back his girlfriend.

Cast
Ricky Mabe	 ...	Erik
Mark Antony Krupa	 ...	Bjorn (as Mark A. Krupa)
Trevor Hayes	 ...	Shaman Murtagh
Kaniehtiio Horn	 ...	Princess Evlynia / Lyn (as Tiio Horn)
Kent McQuaid	 ...	Greg-ash
Claudia Jurt	 ...	Tamara
Nicolas Wright	 ...	King Argyle
Kyle Gatehouse	 ...	David
Terry Simpson	 ...	Bernie
Spiro Malandrakis	 ...	Olivier



Greets
To Everyone who makes p2p possible...... Thanks.